<svg width="32" height="39" viewBox="0 0 32 39" fill="none" xmlns="http://www.w3.org/2000/svg">
<path fill-rule="evenodd" clip-rule="evenodd" d="M1.3766 1.3766C2.25802 0.495177 3.45348 0 4.7 0H19.5C19.7652 0 20.0196 0.105357 20.2071 0.292893L31.3071 11.3929C31.4946 11.5804 31.6 11.8348 31.6 12.1V34.3C31.6 35.5465 31.1048 36.742 30.2234 37.6234C29.342 38.5048 28.1465 39 26.9 39H4.7C3.45348 39 2.25802 38.5048 1.3766 37.6234C0.495177 36.742 0 35.5465 0 34.3V4.7C0 3.45348 0.495177 2.25802 1.3766 1.3766ZM4.7 2C3.98392 2 3.29716 2.28446 2.79081 2.79081C2.28446 3.29716 2 3.98392 2 4.7V34.3C2 35.0161 2.28446 35.7028 2.79081 36.2092C3.29716 36.7155 3.98392 37 4.7 37H26.9C27.6161 37 28.3028 36.7155 28.8092 36.2092C29.3155 35.7028 29.6 35.0161 29.6 34.3V12.5142L19.0858 2H4.7Z" fill="#848D94"/>
<path fill-rule="evenodd" clip-rule="evenodd" d="M19.5001 0C20.0524 0 20.5001 0.447715 20.5001 1V11.1H30.6001C31.1524 11.1 31.6001 11.5477 31.6001 12.1C31.6001 12.6523 31.1524 13.1 30.6001 13.1H19.5001C18.9478 13.1 18.5001 12.6523 18.5001 12.1V1C18.5001 0.447715 18.9478 0 19.5001 0Z" fill="#848D94"/>
<path fill-rule="evenodd" clip-rule="evenodd" d="M7.40002 21.3506C7.40002 20.7983 7.84774 20.3506 8.40002 20.3506H23.2C23.7523 20.3506 24.2 20.7983 24.2 21.3506C24.2 21.9029 23.7523 22.3506 23.2 22.3506H8.40002C7.84774 22.3506 7.40002 21.9029 7.40002 21.3506Z" fill="#848D94"/>
<path fill-rule="evenodd" clip-rule="evenodd" d="M7.40002 28.75C7.40002 28.1977 7.84774 27.75 8.40002 27.75H23.2C23.7523 27.75 24.2 28.1977 24.2 28.75C24.2 29.3023 23.7523 29.75 23.2 29.75H8.40002C7.84774 29.75 7.40002 29.3023 7.40002 28.75Z" fill="#848D94"/>
<path fill-rule="evenodd" clip-rule="evenodd" d="M7.40002 13.9502C7.40002 13.3979 7.84774 12.9502 8.40002 12.9502H12.1C12.6523 12.9502 13.1 13.3979 13.1 13.9502C13.1 14.5025 12.6523 14.9502 12.1 14.9502H8.40002C7.84774 14.9502 7.40002 14.5025 7.40002 13.9502Z" fill="#848D94"/>
</svg>
